<svg width="38" height="38" fill="none" xmlns="http://www.w3.org/2000/svg"><path d="M16.022 14.094a4.366 4.366 0 011.077-.507v3.226a4.38 4.38 0 01-1.077-.507c-.69-.46-.823-.89-.823-1.106 0-.217.133-.646.823-1.106zm4.877 10.32v-3.227a4.4 4.4 0 011.078.507c.691.462.822.89.822 1.106 0 .217-.133.646-.822 1.106a4.38 4.38 0 01-1.078.507z" fill="#DBB19F"/><path fill-rule="evenodd" clip-rule="evenodd" d="M19 34.2a15.2 15.2 0 100-30.4 15.2 15.2 0 000 30.4zm1.9-24.7a1.9 1.9 0 00-3.8 0v.175a8.617 8.617 0 00-3.184 1.258c-1.371.912-2.515 2.384-2.515 4.267 0 1.881 1.144 3.354 2.515 4.268.912.608 2.003 1.035 3.185 1.257v3.688c-.743-.241-1.292-.602-1.602-.957a1.9 1.9 0 10-2.869 2.489c1.068 1.233 2.685 2.044 4.47 2.38v.175a1.9 1.9 0 003.8 0v-.175a8.62 8.62 0 003.185-1.258c1.372-.912 2.516-2.384 2.516-4.267 0-1.881-1.144-3.354-2.516-4.267a8.62 8.62 0 00-3.184-1.258v-3.688c.743.241 1.292.602 1.602.957a1.9 1.9 0 102.87-2.489c-1.07-1.233-2.684-2.044-4.472-2.38V9.5z" fill="#DBB19F"/></svg>