<svg width="36" height="36" fill="none" xmlns="http://www.w3.org/2000/svg"><path fill-rule="evenodd" clip-rule="evenodd" d="M7.349 16.2h3.503c.16-2.783.69-5.346 1.506-7.412A10.807 10.807 0 007.35 16.2zm10.65-12.6a14.4 14.4 0 100 28.8 14.4 14.4 0 000-28.8zm0 3.6c-.136 0-.417.058-.836.472-.429.42-.895 1.121-1.327 2.127-.7 1.633-1.211 3.856-1.379 6.401h7.085c-.167-2.545-.679-4.768-1.379-6.4-.432-1.009-.9-1.707-1.326-2.128-.42-.414-.7-.472-.837-.472zm7.148 9c-.16-2.783-.689-5.346-1.506-7.412a10.806 10.806 0 015.01 7.412h-3.504zm-3.605 3.6h-7.085c.168 2.545.679 4.768 1.379 6.4.432 1.009.9 1.707 1.327 2.128.419.415.7.472.837.472.136 0 .417-.058.837-.472.428-.42.896-1.12 1.326-2.127.7-1.633 1.212-3.856 1.379-6.4zm2.099 7.412c.817-2.064 1.346-4.63 1.506-7.412h3.503a10.808 10.808 0 01-5.01 7.412zm-11.283 0c-.817-2.066-1.346-4.63-1.504-7.412H7.349a10.808 10.808 0 005.01 7.412z" fill="#DBB19F"/></svg>