<svg width="95" height="49" fill="none" xmlns="http://www.w3.org/2000/svg"><path d="M70.705 0c-4.185 0-8.15 1.065-11.586 2.974A24.283 24.283 0 0047.51 0c-4.119 0-8.15 1.087-11.586 2.974A24.125 24.125 0 0024.34 0C10.903 0 0 10.985 0 24.5S10.903 49 24.317 49c4.207 0 8.15-1.087 11.586-2.974A24.125 24.125 0 0047.49 49c4.185 0 8.084-1.043 11.608-2.974A24.125 24.125 0 0070.683 49C84.097 49 95 38.015 95 24.5S84.119 0 70.705 0zM56.872 4.372a24.673 24.673 0 00-9.361 12.76c-1.63-5.237-4.978-9.698-9.361-12.76a21.698 21.698 0 019.361-2.108c3.348 0 6.476.732 9.361 2.108zM25.441 24.5c0-2.707.484-5.282 1.365-7.678 2.49 3.883 5.176 6.058 7.996 6.524v8.655c-3.392-.621-6.762-3.884-9.317-6.347 0-.377-.022-.755-.022-1.132l-.023-.022zm20.925 1.132s-.199.2-.309.288l-.088.09c-2.753 2.551-5.837 5.392-8.92 5.99v-8.654c2.819-.466 5.484-2.64 7.995-6.524A22.256 22.256 0 0146.41 24.5c0 .377 0 .755-.022 1.132h-.022zm-2.467-11.296c-1.586 2.752-4.01 5.992-6.85 6.68V6.346a22.617 22.617 0 016.894 7.968v.044l-.044-.022zm-9.141 6.68c-2.842-.71-5.243-3.906-6.829-6.636 0-.022-.043-.066-.043-.088a22.398 22.398 0 016.894-7.967v14.69h-.022zm0 13.27v8.367c-4.428-3.173-7.666-7.922-8.855-13.47 2.533 2.308 5.573 4.638 8.855 5.081v.023zm2.246 0c3.238-.443 6.19-2.751 8.855-5.17-1.167 5.548-4.405 10.341-8.855 13.537v-8.366zM2.247 24.5c0-12.25 9.912-22.236 22.07-22.236 3.348 0 6.52.754 9.361 2.108C27.357 8.81 23.194 16.178 23.194 24.5a24.493 24.493 0 0010.484 20.128 21.698 21.698 0 01-9.36 2.108c-12.16 0-22.071-9.964-22.071-22.236zM47.51 46.736c-3.348 0-6.52-.754-9.361-2.108a24.673 24.673 0 009.361-12.76c1.63 5.237 4.978 9.698 9.361 12.76a22.065 22.065 0 01-9.361 2.108zm23.194 0c-3.348 0-6.498-.754-9.34-2.086a24.332 24.332 0 006.344-6.502c.353-.51.198-1.22-.308-1.576-.507-.355-1.212-.2-1.564.311a22.028 22.028 0 01-6.74 6.525C52.819 39.48 48.612 32.467 48.612 24.5A22.26 22.26 0 0159.097 5.592a22.244 22.244 0 016.696 6.48c.352.51 1.035.644 1.564.311a1.17 1.17 0 00.308-1.575 24.658 24.658 0 00-6.321-6.436 21.982 21.982 0 019.339-2.086c12.158 0 22.07 9.964 22.07 22.236s-9.89 22.237-22.07 22.237l.022-.023z" fill="#fff"/></svg>