<svg width="24" height="24" fill="none" xmlns="http://www.w3.org/2000/svg"><path d="M10.8 2.4a1.2 1.2 0 100 2.4h2.4a1.2 1.2 0 100-2.4h-2.4z" fill="#DBB19F"/><path fill-rule="evenodd" clip-rule="evenodd" d="M4.8 6a2.4 2.4 0 012.4-2.4 3.6 3.6 0 003.6 3.6h2.4a3.6 3.6 0 003.6-3.6A2.4 2.4 0 0119.2 6v13.2a2.4 2.4 0 01-2.4 2.4H7.2a2.4 2.4 0 01-2.4-2.4V6zm3.6 4.8a1.2 1.2 0 100 2.4h.012a1.2 1.2 0 000-2.4H8.4zm3.6 0a1.2 1.2 0 100 2.4h3.6a1.2 1.2 0 000-2.4H12zm-3.6 4.8a1.2 1.2 0 100 2.4h.012a1.2 1.2 0 000-2.4H8.4zm3.6 0a1.2 1.2 0 100 2.4h3.6a1.2 1.2 0 000-2.4H12z" fill="#DBB19F"/></svg>