<svg width="20" height="20" fill="none" xmlns="http://www.w3.org/2000/svg"><path fill-rule="evenodd" clip-rule="evenodd" d="M2.9 8.8h2.335c.107-1.855.46-3.564 1.005-4.942A7.205 7.205 0 002.9 8.8zM10 .4a9.6 9.6 0 100 19.2A9.6 9.6 0 0010 .4zm0 2.4c-.09 0-.278.038-.558.314-.285.281-.596.748-.884 1.419-.467 1.088-.808 2.57-.92 4.267h4.724c-.112-1.697-.452-3.179-.92-4.267-.287-.672-.6-1.138-.884-1.419-.28-.276-.466-.314-.558-.314zm4.766 6c-.107-1.855-.46-3.564-1.005-4.942a7.204 7.204 0 013.34 4.942h-2.335zm-2.404 2.4H7.639c.111 1.697.452 3.179.919 4.267.288.672.6 1.138.884 1.418.28.276.467.315.558.315.092 0 .279-.038.558-.314.286-.281.598-.748.885-1.419.467-1.088.807-2.57.919-4.267zm1.4 4.942c.544-1.377.897-3.087 1.004-4.942H17.1a7.204 7.204 0 01-3.34 4.942zm-7.522 0c-.545-1.378-.898-3.087-1.004-4.942H2.9a7.205 7.205 0 003.34 4.942z" fill="#DBB19F"/></svg>