<svg width="1440" height="971" fill="none" xmlns="http://www.w3.org/2000/svg"><path fill="#1F4437" d="M0 280h1440v619H0z"/><path opacity=".1" d="M301.666 445.471c-10.689 0-19.434-2.186-26.236-6.559s-12.389-9.96-16.762-16.762c-4.859-8.26-8.26-16.762-10.203-25.507-1.458-9.232-2.186-16.763-2.186-22.593 0-23.807 6.073-45.427 18.219-64.862 12.147-19.434 31.095-35.224 56.845-47.371l6.559 13.118c-15.061 6.317-28.179 16.277-39.354 29.881-10.689 13.604-16.033 27.451-16.033 41.54 0 5.831.729 10.932 2.186 15.305 7.774-6.316 16.762-9.474 26.965-9.474 12.632 0 23.564 4.129 32.796 12.389 9.231 8.26 13.846 19.677 13.846 34.253 0 13.604-4.615 24.779-13.846 33.524-9.232 8.745-20.164 13.118-32.796 13.118zm123.894 0c-10.689 0-19.435-2.186-26.237-6.559s-12.389-9.96-16.762-16.762c-4.858-8.26-8.259-16.762-10.203-25.507-1.457-9.232-2.186-16.763-2.186-22.593 0-23.807 6.073-45.427 18.22-64.862 12.146-19.434 31.094-35.224 56.845-47.371l6.559 13.118c-15.062 6.317-28.18 16.277-39.355 29.881-10.688 13.604-16.033 27.451-16.033 41.54 0 5.831.729 10.932 2.187 15.305 7.773-6.316 16.762-9.474 26.965-9.474 12.632 0 23.564 4.129 32.795 12.389 9.231 8.26 13.847 19.677 13.847 34.253 0 13.604-4.616 24.779-13.847 33.524-9.231 8.745-20.163 13.118-32.795 13.118z" fill="#fff"/></svg>