<svg width="16" height="16" fill="none" xmlns="http://www.w3.org/2000/svg"><path fill-rule="evenodd" clip-rule="evenodd" d="M8.338 16h-.666c-3.618 0-5.426 0-6.549-1.123C0 13.754 0 11.946 0 8.337v-.675c0-3.608 0-5.416 1.123-6.539C2.246 0 4.054 0 7.672 0h.666c3.617 0 5.435 0 6.548 1.123C16 2.246 16 4.055 16 7.663v.766c0 3.547 0 5.334-1.114 6.448C13.763 16 11.955 16 8.338 16zM2.704 4.874c.085 4.159 2.274 6.662 5.882 6.662h.21v-2.38c1.312.134 2.293 1.114 2.693 2.38h1.894c-.514-1.894-1.847-2.94-2.675-3.34.828-.496 1.999-1.695 2.275-3.322H11.26c-.362 1.322-1.437 2.522-2.465 2.636V4.874H7.043V9.49c-1.065-.264-2.455-1.561-2.512-4.616H2.704z" fill="#5E7A6B"/></svg>