<svg width="12" height="13" viewBox="0 0 12 13" fill="none" xmlns="http://www.w3.org/2000/svg">
<path fill-rule="evenodd" clip-rule="evenodd" d="M6.17575 2.47578C6.28827 2.3633 6.44085 2.30011 6.59995 2.30011C6.75905 2.30011 6.91163 2.3633 7.02415 2.47578L10.6242 6.07578C10.7366 6.1883 10.7998 6.34088 10.7998 6.49998C10.7998 6.65908 10.7366 6.81167 10.6242 6.92418L7.02415 10.5242C6.91099 10.6335 6.75943 10.694 6.60211 10.6926C6.44479 10.6912 6.2943 10.6281 6.18306 10.5169C6.07181 10.4056 6.00871 10.2551 6.00735 10.0978C6.00598 9.9405 6.06646 9.78894 6.17575 9.67578L8.75155 7.09998H1.79995C1.64082 7.09998 1.48821 7.03677 1.37569 6.92425C1.26317 6.81172 1.19995 6.65911 1.19995 6.49998C1.19995 6.34085 1.26317 6.18824 1.37569 6.07572C1.48821 5.9632 1.64082 5.89998 1.79995 5.89998H8.75155L6.17575 3.32418C6.06327 3.21166 6.00008 3.05908 6.00008 2.89998C6.00008 2.74088 6.06327 2.5883 6.17575 2.47578V2.47578Z" fill="white"/>
</svg>
