<svg width="10" height="9" viewBox="0 0 10 9" fill="none" xmlns="http://www.w3.org/2000/svg">
<path fill-rule="evenodd" clip-rule="evenodd" d="M5.17581 0.475965C5.28833 0.363482 5.44091 0.300293 5.60001 0.300293C5.75911 0.300293 5.9117 0.363482 6.02421 0.475965L9.62421 4.07597C9.73669 4.18848 9.79988 4.34107 9.79988 4.50016C9.79988 4.65926 9.73669 4.81185 9.62421 4.92437L6.02421 8.52437C5.91105 8.63366 5.75949 8.69414 5.60217 8.69277C5.44485 8.6914 5.29437 8.6283 5.18312 8.51706C5.07188 8.40581 5.00877 8.25532 5.00741 8.09801C5.00604 7.94069 5.06652 7.78913 5.17581 7.67597L7.75161 5.10016H0.800012C0.640882 5.10016 0.48827 5.03695 0.375748 4.92443C0.263226 4.81191 0.200012 4.6593 0.200012 4.50016C0.200012 4.34103 0.263226 4.18842 0.375748 4.0759C0.48827 3.96338 0.640882 3.90016 0.800012 3.90016H7.75161L5.17581 1.32436C5.06333 1.21185 5.00014 1.05926 5.00014 0.900165C5.00014 0.741066 5.06333 0.588481 5.17581 0.475965Z" fill="#994B2A"/>
</svg>
