<svg width="20" height="21" viewBox="0 0 20 21" fill="none" xmlns="http://www.w3.org/2000/svg">
<path fill-rule="evenodd" clip-rule="evenodd" d="M5.2047 9.14062C5.33581 9.01589 5.51362 8.94582 5.69901 8.94582C5.8844 8.94582 6.0622 9.01589 6.19331 9.14062L8.49563 11.3315L10.7979 9.14062C10.8624 9.07707 10.9396 9.02639 11.0249 8.99152C11.1102 8.95665 11.2019 8.93829 11.2948 8.93753C11.3876 8.93676 11.4797 8.95359 11.5656 8.98704C11.6515 9.0205 11.7296 9.0699 11.7952 9.13237C11.8609 9.19484 11.9128 9.26912 11.9479 9.35089C11.9831 9.43266 12.0008 9.52027 12 9.60861C11.9992 9.69695 11.9799 9.78425 11.9432 9.86543C11.9066 9.9466 11.8533 10.02 11.7866 10.0814L8.98993 12.7427C8.85882 12.8674 8.68102 12.9375 8.49563 12.9375C8.31024 12.9375 8.13244 12.8674 8.00133 12.7427L5.2047 10.0814C5.07363 9.95662 5 9.78742 5 9.611C5 9.43458 5.07363 9.26538 5.2047 9.14062Z" fill="#1F4437"/>
</svg>
