<svg width="66" height="26" viewBox="0 0 66 26" fill="none" xmlns="http://www.w3.org/2000/svg">
<path d="M0 25.2V4.5H13.22V7.33H3V13.14H11.5V15.97H3V22.37H13.22V25.2H0Z" fill="white"/>
<path d="M14.9499 25.2L22.0099 14.72L15.1299 4.5H18.8099L23.8499 12.18L28.8699 4.5H32.5599L25.6899 14.72L32.7299 25.2H29.0499L23.8499 17.28L18.6299 25.2H14.9399H14.9499Z" fill="white"/>
<path d="M41.35 25.2V7.33H34.47V4.5H51.24V7.33H44.36V25.2H41.36H41.35Z" fill="white"/>
<path d="M51.1799 25.2V22.02H54.3599V25.2H51.1799Z" fill="white"/>
<path d="M56.8099 4.86V0.82H55.1399V0H59.3599V0.82H57.6899V4.86H56.8099ZM60.2799 4.86V0H61.0099L62.7899 2.96L64.5699 0H65.2999V4.86H64.4599V1.69L63.0699 4.06H62.5299L61.1399 1.69V4.86H60.2999H60.2799Z" fill="white"/>
</svg>
