<svg width="36" height="36" viewBox="0 0 36 36" fill="none" xmlns="http://www.w3.org/2000/svg">
<path d="M14.4 29.7C14.4 30.4161 14.1155 31.1028 13.6092 31.6092C13.1028 32.1155 12.4161 32.4 11.7 32.4C10.9839 32.4 10.2972 32.1155 9.79081 31.6092C9.28446 31.1028 9 30.4161 9 29.7C9 28.9839 9.28446 28.2972 9.79081 27.7908C10.2972 27.2845 10.9839 27 11.7 27C12.4161 27 13.1028 27.2845 13.6092 27.7908C14.1155 28.2972 14.4 28.9839 14.4 29.7ZM27 29.7C27 30.4161 26.7155 31.1028 26.2092 31.6092C25.7028 32.1155 25.0161 32.4 24.3 32.4C23.5839 32.4 22.8972 32.1155 22.3908 31.6092C21.8845 31.1028 21.6 30.4161 21.6 29.7C21.6 28.9839 21.8845 28.2972 22.3908 27.7908C22.8972 27.2845 23.5839 27 24.3 27C25.0161 27 25.7028 27.2845 26.2092 27.7908C26.7155 28.2972 27 28.9839 27 29.7Z" fill="#DBB19F"/>
<path d="M5.39961 7.19995C4.92222 7.19995 4.46438 7.38959 4.12682 7.72716C3.78925 8.06472 3.59961 8.52256 3.59961 8.99995V26.9999C3.59961 27.4773 3.78925 27.9352 4.12682 28.2727C4.46438 28.6103 4.92222 28.7999 5.39961 28.7999H7.28961C7.49617 27.7827 8.04807 26.8681 8.85178 26.2112C9.65549 25.5543 10.6616 25.1954 11.6996 25.1954C12.7376 25.1954 13.7437 25.5543 14.5474 26.2112C15.3512 26.8681 15.903 27.7827 16.1096 28.7999H17.9996C18.477 28.7999 18.9348 28.6103 19.2724 28.2727C19.61 27.9352 19.7996 27.4773 19.7996 26.9999V8.99995C19.7996 8.52256 19.61 8.06472 19.2724 7.72716C18.9348 7.38959 18.477 7.19995 17.9996 7.19995H5.39961ZM25.1996 12.6C24.7222 12.6 24.2644 12.7896 23.9268 13.1272C23.5893 13.4647 23.3996 13.9226 23.3996 14.4V25.2899C23.9787 25.1716 24.5755 25.1686 25.1558 25.281C25.7362 25.3933 26.2887 25.6189 26.7818 25.9449C27.2749 26.2709 27.6989 26.6908 28.0297 27.1806C28.3605 27.6705 28.5915 28.2208 28.7096 28.7999H30.5996C31.077 28.7999 31.5348 28.6103 31.8724 28.2727C32.21 27.9352 32.3996 27.4773 32.3996 26.9999V18C32.3995 17.5226 32.2098 17.0648 31.8722 16.7274L28.2722 13.1274C27.9347 12.7898 27.477 12.6001 26.9996 12.6H25.1996Z" fill="#DBB19F"/>
</svg>
