<svg width="36" height="36" viewBox="0 0 36 36" fill="none" xmlns="http://www.w3.org/2000/svg">
<path fill-rule="evenodd" clip-rule="evenodd" d="M7.34901 16.2001H10.8518C11.012 13.4173 11.5412 10.8541 12.3584 8.7877C11.0426 9.59395 9.91476 10.6726 9.05069 11.9512C8.18662 13.2298 7.60638 14.6786 7.34901 16.2001ZM17.9996 3.6001C14.1805 3.6001 10.5178 5.11724 7.81727 7.81776C5.11675 10.5183 3.59961 14.181 3.59961 18.0001C3.59961 21.8192 5.11675 25.4819 7.81727 28.1824C10.5178 30.883 14.1805 32.4001 17.9996 32.4001C21.8187 32.4001 25.4814 30.883 28.1819 28.1824C30.8825 25.4819 32.3996 21.8192 32.3996 18.0001C32.3996 14.181 30.8825 10.5183 28.1819 7.81776C25.4814 5.11724 21.8187 3.6001 17.9996 3.6001V3.6001ZM17.9996 7.2001C17.8628 7.2001 17.582 7.2577 17.1626 7.6717C16.7342 8.0929 16.268 8.7931 15.836 9.7993C15.1358 11.4319 14.6246 13.6549 14.4572 16.2001H21.542C21.3746 13.6549 20.8634 11.4319 20.1632 9.7993C19.7312 8.7913 19.2632 8.0929 18.8366 7.6717C18.4172 7.2577 18.1364 7.2001 17.9996 7.2001ZM25.1474 16.2001C24.9872 13.4173 24.458 10.8541 23.6408 8.7877C24.9566 9.59395 26.0845 10.6726 26.9485 11.9512C27.8126 13.2298 28.3928 14.6786 28.6502 16.2001H25.1474ZM21.542 19.8001H14.4572C14.6246 22.3453 15.1358 24.5683 15.836 26.2009C16.268 27.2089 16.736 27.9073 17.1626 28.3285C17.582 28.7425 17.8628 28.8001 17.9996 28.8001C18.1364 28.8001 18.4172 28.7425 18.8366 28.3285C19.265 27.9073 19.733 27.2071 20.1632 26.2009C20.8634 24.5683 21.3746 22.3453 21.542 19.8001ZM23.6408 27.2125C24.458 25.1479 24.9872 22.5829 25.1474 19.8001H28.6502C28.3928 21.3216 27.8126 22.7704 26.9485 24.049C26.0845 25.3276 24.9566 26.4062 23.6408 27.2125V27.2125ZM12.3584 27.2125C11.5412 25.1461 11.012 22.5829 10.8536 19.8001H7.34901C7.60638 21.3216 8.18662 22.7704 9.05069 24.049C9.91476 25.3276 11.0426 26.4062 12.3584 27.2125V27.2125Z" fill="#DBB19F"/>
</svg>
