<svg width="38" height="38" viewBox="0 0 38 38" fill="none" xmlns="http://www.w3.org/2000/svg">
<path d="M16.0219 14.0942C16.3164 13.8985 16.6793 13.7218 17.0992 13.5869V16.8131C16.7187 16.6938 16.3562 16.5232 16.0219 16.3058C15.3322 15.846 15.1992 15.4166 15.1992 15.2C15.1992 14.9834 15.3322 14.554 16.0219 14.0942ZM20.8992 24.4131V21.1869C21.3172 21.3218 21.682 21.4985 21.9765 21.6942C22.6681 22.1559 22.7992 22.5834 22.7992 22.8C22.7992 23.0166 22.6662 23.446 21.9765 23.9058C21.6422 24.1232 21.2797 24.2938 20.8992 24.4131Z" fill="#DBB19F"/>
<path fill-rule="evenodd" clip-rule="evenodd" d="M19.0008 34.2001C23.0321 34.2001 26.8983 32.5986 29.7488 29.7481C32.5994 26.8975 34.2008 23.0313 34.2008 19C34.2008 14.9688 32.5994 11.1026 29.7488 8.25203C26.8983 5.40147 23.0321 3.80005 19.0008 3.80005C14.9695 3.80005 11.1033 5.40147 8.25276 8.25203C5.40221 11.1026 3.80078 14.9688 3.80078 19C3.80078 23.0313 5.40221 26.8975 8.25276 29.7481C11.1033 32.5986 14.9695 34.2001 19.0008 34.2001V34.2001ZM20.9008 9.50005C20.9008 8.99614 20.7006 8.51287 20.3443 8.15655C19.988 7.80023 19.5047 7.60005 19.0008 7.60005C18.4969 7.60005 18.0136 7.80023 17.6573 8.15655C17.301 8.51287 17.1008 8.99614 17.1008 9.50005V9.67485C15.9659 9.87688 14.883 10.3046 13.9164 10.9326C12.5446 11.8446 11.4008 13.3171 11.4008 15.2C11.4008 17.081 12.5446 18.5536 13.9164 19.4675C14.8284 20.0755 15.919 20.5029 17.1008 20.7252V24.4131C16.3579 24.1718 15.8088 23.8109 15.4991 23.4556C15.3383 23.2583 15.1396 23.0954 14.9147 22.9764C14.6898 22.8574 14.4433 22.7848 14.1898 22.7629C13.9363 22.741 13.681 22.7702 13.439 22.8488C13.197 22.9275 12.9733 23.0539 12.7811 23.2206C12.5889 23.3874 12.4322 23.591 12.3202 23.8195C12.2082 24.0479 12.1432 24.2966 12.1291 24.5506C12.115 24.8047 12.1521 25.059 12.2382 25.2984C12.3242 25.5379 12.4575 25.7576 12.6301 25.9445C13.6979 27.1776 15.3148 27.989 17.1008 28.3253V28.5001C17.1008 29.004 17.301 29.4872 17.6573 29.8436C18.0136 30.1999 18.4969 30.4001 19.0008 30.4001C19.5047 30.4001 19.988 30.1999 20.3443 29.8436C20.7006 29.4872 20.9008 29.004 20.9008 28.5001V28.3253C22.0357 28.1232 23.1185 27.6955 24.0852 27.0675C25.457 26.1555 26.6008 24.6829 26.6008 22.8C26.6008 20.919 25.457 19.4465 24.0852 18.5326C23.1185 17.9046 22.0357 17.4769 20.9008 17.2748V13.5869C21.6437 13.8282 22.1928 14.1892 22.5025 14.5445C22.6647 14.737 22.8636 14.8954 23.0875 15.0104C23.3115 15.1253 23.5561 15.1946 23.807 15.2143C24.058 15.2339 24.3104 15.2035 24.5495 15.1248C24.7886 15.046 25.0097 14.9206 25.1999 14.7557C25.3901 14.5908 25.5457 14.3897 25.6575 14.1642C25.7694 13.9386 25.8353 13.6931 25.8514 13.4419C25.8675 13.1907 25.8336 12.9387 25.7515 12.7007C25.6695 12.4628 25.5409 12.2434 25.3734 12.0555C24.3037 10.8224 22.6887 10.0111 20.9008 9.67485V9.50005Z" fill="#DBB19F"/>
</svg>
