<svg width="34" height="34" viewBox="0 0 34 34" fill="none" xmlns="http://www.w3.org/2000/svg">
<path fill-rule="evenodd" clip-rule="evenodd" d="M17.0004 30.6C20.6073 30.6 24.0665 29.1672 26.617 26.6167C29.1675 24.0662 30.6004 20.607 30.6004 17C30.6004 13.3931 29.1675 9.93387 26.617 7.38337C24.0665 4.83288 20.6073 3.40002 17.0004 3.40002C13.3934 3.40002 9.93423 4.83288 7.38374 7.38337C4.83324 9.93387 3.40039 13.3931 3.40039 17C3.40039 20.607 4.83324 24.0662 7.38374 26.6167C9.93423 29.1672 13.3934 30.6 17.0004 30.6V30.6ZM18.7004 10.2C18.7004 9.74916 18.5213 9.31676 18.2025 8.99794C17.8837 8.67913 17.4513 8.50002 17.0004 8.50002C16.5495 8.50002 16.1171 8.67913 15.7983 8.99794C15.4795 9.31676 15.3004 9.74916 15.3004 10.2V17C15.3005 17.4509 15.4797 17.8832 15.7985 18.2019L20.6061 23.0112C20.764 23.1692 20.9515 23.2945 21.1579 23.3799C21.3643 23.4654 21.5855 23.5094 21.8088 23.5094C22.0322 23.5094 22.2534 23.4654 22.4598 23.3799C22.6661 23.2945 22.8536 23.1692 23.0116 23.0112C23.1695 22.8533 23.2948 22.6658 23.3803 22.4594C23.4658 22.253 23.5098 22.0318 23.5098 21.8085C23.5098 21.5851 23.4658 21.3639 23.3803 21.1576C23.2948 20.9512 23.1695 20.7637 23.0116 20.6057L18.7004 16.2962V10.2Z" fill="#DBB19F"/>
</svg>
