<svg width="95" height="49" viewBox="0 0 95 49" fill="none" xmlns="http://www.w3.org/2000/svg">
<path d="M70.7048 0C66.5198 0 62.5551 1.06522 59.1189 2.97373C55.6167 1.06522 51.63 0 47.511 0C43.3921 0 39.3612 1.08741 35.9251 2.97373C32.467 1.08741 28.5242 0 24.3392 0C10.9031 0 0 10.9851 0 24.5C0 38.0149 10.9031 49 24.3172 49C28.5242 49 32.467 47.9126 35.9031 46.0263C39.3612 47.9126 43.304 49 47.489 49C51.674 49 55.5727 47.957 59.0969 46.0263C62.5551 47.9126 66.4978 49 70.6828 49C84.0969 49 95 38.0149 95 24.5C95 10.9851 84.1189 0 70.7048 0ZM56.8722 4.37183C52.489 7.43433 49.163 11.9171 47.511 17.1322C45.8811 11.8949 42.533 7.43433 38.1498 4.37183C40.9912 3.01812 44.163 2.26359 47.511 2.26359C50.859 2.26359 53.9868 2.99592 56.8722 4.37183ZM25.4405 24.5C25.4405 21.7926 25.9251 19.2183 26.8062 16.8216C29.2952 20.7052 31.9824 22.88 34.8018 23.346V32.0009C31.4097 31.3795 28.0396 28.1173 25.4846 25.654C25.4846 25.2767 25.4626 24.8995 25.4626 24.5222L25.4405 24.5ZM46.3656 25.6318C46.3656 25.6318 46.1674 25.8315 46.0573 25.9203L45.9692 26.0091C43.2159 28.5611 40.1322 31.4017 37.0485 32.0009V23.346C39.8678 22.88 42.533 20.7052 45.0441 16.8216C45.9251 19.2183 46.4097 21.8148 46.4097 24.5C46.4097 24.8773 46.4097 25.2545 46.3877 25.6318H46.3656ZM43.8987 14.3361C42.3128 17.0879 39.8899 20.3279 37.0485 21.0159V6.34692C39.9339 8.41078 42.2907 11.1404 43.9427 14.3139V14.3582L43.8987 14.3361ZM34.7577 21.0159C31.9163 20.3057 29.5154 17.1101 27.9295 14.3804C27.9295 14.3582 27.8855 14.3139 27.8855 14.2917C29.5154 11.1182 31.8943 8.38859 34.7797 6.32473V21.0159H34.7577ZM34.7577 34.2867V42.6531C30.3304 39.4796 27.0925 34.7305 25.9031 29.1825C28.4361 31.4905 31.4758 33.8207 34.7577 34.2645V34.2867ZM37.0044 34.2867C40.2423 33.8428 43.1938 31.5349 45.859 29.1159C44.6916 34.664 41.4537 39.4574 37.0044 42.6531V34.2867ZM2.2467 24.5C2.2467 12.25 12.1586 2.26359 24.3172 2.26359C27.6652 2.26359 30.837 3.01812 33.6784 4.37183C27.3568 8.81024 23.1938 16.178 23.1938 24.5C23.1938 32.822 27.3348 40.212 33.6784 44.6282C30.837 45.9819 27.6652 46.7364 24.3172 46.7364C12.1586 46.7364 2.2467 36.7722 2.2467 24.5ZM47.511 46.7364C44.163 46.7364 40.9912 45.9819 38.1498 44.6282C42.533 41.5657 45.859 37.0829 47.511 31.8678C49.141 37.1051 52.489 41.5657 56.8722 44.6282C53.9868 45.9819 50.7929 46.7364 47.511 46.7364ZM70.7048 46.7364C67.3568 46.7364 64.207 45.9819 61.3656 44.6504C63.8326 42.9194 65.9912 40.7446 67.7093 38.1481C68.0617 37.6377 67.9075 36.9275 67.4009 36.5725C66.8943 36.2174 66.1894 36.3727 65.837 36.8832C64.0529 39.5684 61.7401 41.7654 59.0969 43.4076C52.8194 39.4796 48.6123 32.4669 48.6123 24.5C48.6123 16.5331 52.7974 9.52038 59.0969 5.59239C61.7181 7.2346 64.0088 9.40942 65.793 12.0725C66.1454 12.5829 66.8282 12.716 67.3568 12.3832C67.8634 12.0281 67.9956 11.3179 67.6652 10.8075C65.9471 8.25543 63.7885 6.08062 61.3436 4.37183C64.185 3.04031 67.3568 2.28578 70.6828 2.28578C82.8414 2.28578 92.7533 12.25 92.7533 24.5222C92.7533 36.7944 82.8634 46.7586 70.6828 46.7586L70.7048 46.7364Z" fill="white"/>
</svg>
