<svg width="16" height="17" viewBox="0 0 16 17" fill="none" xmlns="http://www.w3.org/2000/svg">
<path fill-rule="evenodd" clip-rule="evenodd" d="M8.5892 0C4.96148 0 2.02063 2.94085 2.02063 6.56858V7.644C2.02063 8.02666 2.43293 8.26749 2.76623 8.07952L7.19479 5.58208C7.69229 5.30152 8.19551 5.93998 7.80648 6.35816L3.0641 11.456C3.00477 11.5198 2.95587 11.5876 2.91677 11.6579C2.88633 11.7127 2.85202 11.7656 2.80772 11.8099L0.292921 14.3245C-0.0976188 14.715 -0.0976434 15.3482 0.292866 15.7387C0.683375 16.1293 1.31654 16.1293 1.70708 15.7388L4.16246 13.2836C4.25623 13.1898 4.3834 13.1372 4.516 13.1372H8.15881C12.0248 13.1372 15.1588 10.0031 15.1588 6.13715V1C15.1588 0.447715 14.7111 0 14.1588 0H8.5892Z" fill="#DBB19F"/>
</svg>
