<svg width="20" height="20" viewBox="0 0 20 20" fill="none" xmlns="http://www.w3.org/2000/svg">
<path fill-rule="evenodd" clip-rule="evenodd" d="M2.89999 8.7999H5.23519C5.34199 6.9447 5.69479 5.2359 6.23959 3.8583C5.3624 4.3958 4.61049 5.11493 4.03444 5.96731C3.4584 6.81968 3.07157 7.78554 2.89999 8.7999ZM10.0004 0.399902C7.45431 0.399902 5.01252 1.41133 3.21217 3.21168C1.41182 5.01203 0.400391 7.45382 0.400391 9.9999C0.400391 12.546 1.41182 14.9878 3.21217 16.7881C5.01252 18.5885 7.45431 19.5999 10.0004 19.5999C12.5465 19.5999 14.9883 18.5885 16.7886 16.7881C18.589 14.9878 19.6004 12.546 19.6004 9.9999C19.6004 7.45382 18.589 5.01203 16.7886 3.21168C14.9883 1.41133 12.5465 0.399902 10.0004 0.399902ZM10.0004 2.7999C9.90919 2.7999 9.72199 2.8383 9.44239 3.1143C9.15679 3.3951 8.84599 3.8619 8.55799 4.5327C8.09119 5.6211 7.75039 7.1031 7.63879 8.7999H12.362C12.2504 7.1031 11.9096 5.6211 11.4428 4.5327C11.1548 3.8607 10.8428 3.3951 10.5584 3.1143C10.2788 2.8383 10.0916 2.7999 10.0004 2.7999ZM14.7656 8.7999C14.6588 6.9447 14.306 5.2359 13.7612 3.8583C14.6384 4.3958 15.3903 5.11493 15.9663 5.96731C16.5424 6.81968 16.9292 7.78554 17.1008 8.7999H14.7656ZM12.362 11.1999H7.63879C7.75039 12.8967 8.09119 14.3787 8.55799 15.4671C8.84599 16.1391 9.15799 16.6047 9.44239 16.8855C9.72199 17.1615 9.90919 17.1999 10.0004 17.1999C10.0916 17.1999 10.2788 17.1615 10.5584 16.8855C10.844 16.6047 11.156 16.1379 11.4428 15.4671C11.9096 14.3787 12.2504 12.8967 12.362 11.1999ZM13.7612 16.1415C14.306 14.7651 14.6588 13.0551 14.7656 11.1999H17.1008C16.9292 12.2143 16.5424 13.1801 15.9663 14.0325C15.3903 14.8849 14.6384 15.604 13.7612 16.1415ZM6.23959 16.1415C5.69479 14.7639 5.34199 13.0551 5.23639 11.1999H2.89999C3.07157 12.2143 3.4584 13.1801 4.03444 14.0325C4.61049 14.8849 5.3624 15.604 6.23959 16.1415Z" fill="#DBB19F"/>
</svg>
