<svg width="24" height="24" viewBox="0 0 24 24" fill="none" xmlns="http://www.w3.org/2000/svg">
<path fill-rule="evenodd" clip-rule="evenodd" d="M12.0004 2.40002C12.3187 2.40002 12.6239 2.52645 12.8489 2.7515C13.074 2.97654 13.2004 3.28176 13.2004 3.60002V4.80002C13.2004 5.11828 13.074 5.42351 12.8489 5.64855C12.6239 5.8736 12.3187 6.00002 12.0004 6.00002C11.6821 6.00002 11.3769 5.8736 11.1519 5.64855C10.9268 5.42351 10.8004 5.11828 10.8004 4.80002V3.60002C10.8004 3.28176 10.9268 2.97654 11.1519 2.7515C11.3769 2.52645 11.6821 2.40002 12.0004 2.40002ZM16.8004 12C16.8004 13.2731 16.2947 14.494 15.3945 15.3941C14.4943 16.2943 13.2734 16.8 12.0004 16.8C10.7274 16.8 9.50645 16.2943 8.60628 15.3941C7.7061 14.494 7.20039 13.2731 7.20039 12C7.20039 10.727 7.7061 9.50609 8.60628 8.60591C9.50645 7.70574 10.7274 7.20002 12.0004 7.20002C13.2734 7.20002 14.4943 7.70574 15.3945 8.60591C16.2947 9.50609 16.8004 10.727 16.8004 12ZM16.2436 17.94L17.092 18.7884C17.3183 19.007 17.6214 19.128 17.9361 19.1252C18.2507 19.1225 18.5517 18.9963 18.7742 18.7738C18.9967 18.5513 19.1229 18.2503 19.1256 17.9357C19.1283 17.6211 19.0074 17.3179 18.7888 17.0916L17.9404 16.2432C17.7141 16.0246 17.4109 15.9037 17.0963 15.9064C16.7817 15.9092 16.4807 16.0354 16.2582 16.2578C16.0357 16.4803 15.9095 16.7813 15.9068 17.0959C15.904 17.4106 16.025 17.7137 16.2436 17.94ZM18.7876 5.21162C19.0126 5.43666 19.1389 5.74183 19.1389 6.06002C19.1389 6.37822 19.0126 6.68339 18.7876 6.90842L17.9404 7.75682C17.8297 7.87144 17.6973 7.96286 17.5509 8.02575C17.4045 8.08864 17.247 8.12174 17.0877 8.12313C16.9283 8.12451 16.7703 8.09415 16.6228 8.03381C16.4754 7.97347 16.3414 7.88437 16.2287 7.7717C16.116 7.65903 16.0269 7.52504 15.9666 7.37757C15.9063 7.23009 15.8759 7.07208 15.8773 6.91274C15.8787 6.75341 15.9118 6.59594 15.9747 6.44954C16.0376 6.30313 16.129 6.17072 16.2436 6.06002L17.092 5.21162C17.317 4.98666 17.6222 4.86028 17.9404 4.86028C18.2586 4.86028 18.5638 4.98666 18.7888 5.21162H18.7876ZM20.4004 13.2C20.7187 13.2 21.0239 13.0736 21.2489 12.8486C21.474 12.6235 21.6004 12.3183 21.6004 12C21.6004 11.6818 21.474 11.3765 21.2489 11.1515C21.0239 10.9265 20.7187 10.8 20.4004 10.8H19.2004C18.8821 10.8 18.5769 10.9265 18.3519 11.1515C18.1268 11.3765 18.0004 11.6818 18.0004 12C18.0004 12.3183 18.1268 12.6235 18.3519 12.8486C18.5769 13.0736 18.8821 13.2 19.2004 13.2H20.4004ZM12.0004 18C12.3187 18 12.6239 18.1265 12.8489 18.3515C13.074 18.5765 13.2004 18.8818 13.2004 19.2V20.4C13.2004 20.7183 13.074 21.0235 12.8489 21.2486C12.6239 21.4736 12.3187 21.6 12.0004 21.6C11.6821 21.6 11.3769 21.4736 11.1519 21.2486C10.9268 21.0235 10.8004 20.7183 10.8004 20.4V19.2C10.8004 18.8818 10.9268 18.5765 11.1519 18.3515C11.3769 18.1265 11.6821 18 12.0004 18ZM6.06039 7.75682C6.1718 7.86832 6.30409 7.95677 6.44969 8.01714C6.59528 8.07751 6.75135 8.10861 6.90897 8.10867C7.06658 8.10872 7.22267 8.07773 7.36831 8.01747C7.51395 7.9572 7.6463 7.86884 7.75779 7.75742C7.86928 7.64601 7.95774 7.51373 8.01811 7.36813C8.07848 7.22253 8.10958 7.06647 8.10963 6.90885C8.10969 6.75123 8.0787 6.59514 8.01843 6.4495C7.95817 6.30386 7.8698 6.17152 7.75839 6.06002L6.90879 5.21162C6.68247 4.99303 6.37935 4.87208 6.06471 4.87482C5.75007 4.87755 5.4491 5.00375 5.22661 5.22624C5.00412 5.44873 4.87792 5.74971 4.87518 6.06434C4.87245 6.37898 4.9934 6.6821 5.21199 6.90842L6.06039 7.75682ZM7.75719 17.94L6.90879 18.7884C6.68247 19.007 6.37935 19.128 6.06471 19.1252C5.75007 19.1225 5.4491 18.9963 5.22661 18.7738C5.00412 18.5513 4.87792 18.2503 4.87518 17.9357C4.87245 17.6211 4.9934 17.3179 5.21199 17.0916L6.06039 16.2432C6.28671 16.0246 6.58984 15.9037 6.90447 15.9064C7.21911 15.9092 7.52008 16.0354 7.74257 16.2578C7.96506 16.4803 8.09127 16.7813 8.094 17.0959C8.09673 17.4106 7.97578 17.7137 7.75719 17.94ZM4.80039 13.2C5.11865 13.2 5.42388 13.0736 5.64892 12.8486C5.87396 12.6235 6.00039 12.3183 6.00039 12C6.00039 11.6818 5.87396 11.3765 5.64892 11.1515C5.42388 10.9265 5.11865 10.8 4.80039 10.8H3.60039C3.28213 10.8 2.97691 10.9265 2.75186 11.1515C2.52682 11.3765 2.40039 11.6818 2.40039 12C2.40039 12.3183 2.52682 12.6235 2.75186 12.8486C2.97691 13.0736 3.28213 13.2 3.60039 13.2H4.80039Z" fill="#DBB19F"/>
</svg>
