<svg width="1440" height="971" viewBox="0 0 1440 971" fill="none" xmlns="http://www.w3.org/2000/svg">
<rect y="280" width="1440" height="619" fill="#1F4437"/>
<path opacity="0.1" d="M301.666 445.471C290.977 445.471 282.232 443.285 275.43 438.912C268.628 434.539 263.041 428.952 258.668 422.15C253.809 413.89 250.408 405.388 248.465 396.643C247.007 387.411 246.279 379.88 246.279 374.05C246.279 350.243 252.352 328.623 264.498 309.188C276.645 289.754 295.593 273.964 321.343 261.817L327.902 274.935C312.841 281.252 299.723 291.212 288.548 304.816C277.859 318.42 272.515 332.267 272.515 346.356C272.515 352.187 273.244 357.288 274.701 361.661C282.475 355.345 291.463 352.187 301.666 352.187C314.298 352.187 325.23 356.316 334.462 364.576C343.693 372.836 348.308 384.253 348.308 398.829C348.308 412.433 343.693 423.608 334.462 432.353C325.23 441.098 314.298 445.471 301.666 445.471ZM425.56 445.471C414.871 445.471 406.125 443.285 399.323 438.912C392.521 434.539 386.934 428.952 382.561 422.15C377.703 413.89 374.302 405.388 372.358 396.643C370.901 387.411 370.172 379.88 370.172 374.05C370.172 350.243 376.245 328.623 388.392 309.188C400.538 289.754 419.486 273.964 445.237 261.817L451.796 274.935C436.734 281.252 423.616 291.212 412.441 304.816C401.753 318.42 396.408 332.267 396.408 346.356C396.408 352.187 397.137 357.288 398.595 361.661C406.368 355.345 415.357 352.187 425.56 352.187C438.192 352.187 449.124 356.316 458.355 364.576C467.586 372.836 472.202 384.253 472.202 398.829C472.202 412.433 467.586 423.608 458.355 432.353C449.124 441.098 438.192 445.471 425.56 445.471Z" fill="white"/>
</svg>
