<svg width="74" height="74" viewBox="0 0 74 74" fill="none" xmlns="http://www.w3.org/2000/svg">
<circle cx="37" cy="37" r="37" fill="#5E7A6B"/>
<path fill-rule="evenodd" clip-rule="evenodd" d="M36.9999 35.2C38.4321 35.2 39.8056 34.6311 40.8183 33.6184C41.831 32.6057 42.3999 31.2322 42.3999 29.8C42.3999 28.3679 41.831 26.9943 40.8183 25.9816C39.8056 24.969 38.4321 24.4 36.9999 24.4C35.5677 24.4 34.1942 24.969 33.1815 25.9816C32.1688 26.9943 31.5999 28.3679 31.5999 29.8C31.5999 31.2322 32.1688 32.6057 33.1815 33.6184C34.1942 34.6311 35.5677 35.2 36.9999 35.2ZM24.3999 51.4C24.3999 49.7454 24.7258 48.1069 25.359 46.5782C25.9922 45.0495 26.9203 43.6605 28.0904 42.4905C29.2604 41.3205 30.6494 40.3924 32.1781 39.7591C33.7068 39.1259 35.3452 38.8 36.9999 38.8C38.6546 38.8 40.293 39.1259 41.8217 39.7591C43.3504 40.3924 44.7394 41.3205 45.9094 42.4905C47.0795 43.6605 48.0076 45.0495 48.6408 46.5782C49.274 48.1069 49.5999 49.7454 49.5999 51.4H24.3999Z" fill="white"/>
</svg>
