<svg width="41" height="41" viewBox="0 0 41 41" fill="none" xmlns="http://www.w3.org/2000/svg">
<circle cx="20.5" cy="20.5" r="19.5" stroke="#994B2A" stroke-width="2"/>
<path d="M30 22C30.5523 22 31 21.5523 31 21C31 20.4477 30.5523 20 30 20L30 22ZM10.2929 20.2929C9.90237 20.6834 9.90237 21.3166 10.2929 21.7071L16.6569 28.0711C17.0474 28.4616 17.6805 28.4616 18.0711 28.0711C18.4616 27.6805 18.4616 27.0474 18.0711 26.6569L12.4142 21L18.0711 15.3431C18.4616 14.9526 18.4616 14.3195 18.0711 13.9289C17.6805 13.5384 17.0474 13.5384 16.6569 13.9289L10.2929 20.2929ZM30 20L11 20L11 22L30 22L30 20Z" fill="#994B2A"/>
</svg>
