<svg width="41" height="41" viewBox="0 0 41 41" fill="none" xmlns="http://www.w3.org/2000/svg">
<circle cx="20.5" cy="20.5" r="19.5" transform="rotate(-180 20.5 20.5)" stroke="#994B2A" stroke-width="2"/>
<path d="M11 19C10.4477 19 10 19.4477 10 20C10 20.5523 10.4477 21 11 21L11 19ZM30.7071 20.7071C31.0976 20.3166 31.0976 19.6834 30.7071 19.2929L24.3431 12.9289C23.9526 12.5384 23.3195 12.5384 22.9289 12.9289C22.5384 13.3195 22.5384 13.9526 22.9289 14.3431L28.5858 20L22.9289 25.6569C22.5384 26.0474 22.5384 26.6805 22.9289 27.0711C23.3195 27.4616 23.9526 27.4616 24.3431 27.0711L30.7071 20.7071ZM11 21L30 21L30 19L11 19L11 21Z" fill="#994B2A"/>
</svg>
