<svg width="16" height="16" viewBox="0 0 16 16" fill="none" xmlns="http://www.w3.org/2000/svg">
<path fill-rule="evenodd" clip-rule="evenodd" d="M8.3379 16H7.67169C4.05441 16 2.2464 16 1.1232 14.8768C-7.15256e-07 13.7536 0 11.9456 0 8.33794V7.66209C0 4.05376 0 2.2464 1.1232 1.1232C2.2464 3.21865e-06 4.05441 0 7.67169 0H8.3379C11.9546 0 13.7728 3.21865e-06 14.8864 1.1232C16 2.2464 16 4.05503 16 7.66209V8.42883C16.0001 11.976 16.0001 13.7631 14.8864 14.8768C13.7632 16 11.9546 16 8.3379 16ZM2.70361 4.87353C2.78873 9.03291 4.97816 11.5359 8.58584 11.5359H8.79513V9.15641C10.1084 9.28953 11.0889 10.27 11.4889 11.5359H13.3827C12.8687 9.64216 11.5363 8.59512 10.7081 8.19512C11.5363 7.70041 12.7068 6.50106 12.9827 4.87353H11.2604C10.8982 6.19641 9.82297 7.39578 8.79513 7.50969V4.87353H7.04347V9.48984C5.97784 9.22553 4.58778 7.92891 4.53081 4.87353H2.70361Z" fill="#5E7A6B"/>
</svg>
