<svg width="20" height="16" viewBox="0 0 20 16" fill="none" xmlns="http://www.w3.org/2000/svg">
<path fill-rule="evenodd" clip-rule="evenodd" d="M17.8139 0.947677C18.6744 1.19409 19.352 1.92029 19.582 2.8421C20 4.51339 20 7.99991 20 7.99991C20 7.99991 20 11.4866 19.582 13.1577C19.352 14.0795 18.6744 14.8059 17.8139 15.0521C16.2542 15.5 9.99992 15.5 9.99992 15.5C9.99992 15.5 3.74581 15.5 2.18611 15.0521C1.3256 14.8059 0.647981 14.0795 0.417994 13.1577C0 11.4866 0 7.99991 0 7.99991C0 7.99991 0 4.51339 0.417994 2.8421C0.647981 1.92029 1.3256 1.19409 2.18611 0.947677C3.74581 0.5 9.99992 0.5 9.99992 0.5C9.99992 0.5 16.2542 0.5 17.8139 0.947677ZM13.1959 8.00009L8.00001 11.2143V4.78557L13.1959 8.00009Z" fill="#5E7A6B"/>
</svg>
